<svg width="51" height="51" viewBox="0 0 51 51" fill="none" xmlns="http://www.w3.org/2000/svg">
<rect x="0.914062" y="0.0117493" width="50" height="50" rx="6" fill="white"/>
<path d="M25.9513 5.11728H25.9139C24.0536 5.11712 22.2115 5.48341 20.4928 6.19524C18.774 6.90707 17.2124 7.9505 15.8969 9.26593C14.5815 10.5814 13.5381 12.143 12.8263 13.8618C12.1144 15.5805 11.7481 17.4226 11.7483 19.2829V41.9314C11.748 42.2042 11.7854 42.4756 11.8593 42.7381C11.8817 42.8179 11.9079 42.8964 11.9366 42.9737C11.9453 42.9987 11.9577 43.0236 11.9677 43.0485C11.9877 43.0997 12.0076 43.1495 12.0313 43.1994C12.045 43.2281 12.0612 43.2567 12.0762 43.2854C12.0911 43.3141 12.1198 43.3727 12.1435 43.4101C12.1672 43.4475 12.1809 43.4699 12.1996 43.4986C12.2183 43.5273 12.247 43.5772 12.2719 43.6146C12.2969 43.652 12.3156 43.6732 12.3368 43.7018C12.358 43.7305 12.3891 43.7742 12.4178 43.8091C12.4465 43.844 12.4652 43.8639 12.4889 43.8913C12.5126 43.9188 12.5462 43.9574 12.5774 43.9898C12.6086 44.0223 12.6297 44.041 12.6559 44.0671C12.6821 44.0933 12.7183 44.1282 12.7507 44.1569C12.7831 44.1856 12.808 44.2055 12.8367 44.2292L12.9364 44.3103C12.9664 44.3327 12.9975 44.3539 13.0287 44.3751C13.0599 44.3963 13.0985 44.425 13.1347 44.4474C13.1708 44.4698 13.2008 44.4873 13.2332 44.506C13.2656 44.5247 13.3067 44.5496 13.3454 44.5696L13.4489 44.6207L13.5648 44.6743L13.6733 44.7167C13.7132 44.7317 13.7531 44.7479 13.798 44.7616C13.8428 44.7753 13.8728 44.784 13.9114 44.7952C13.9501 44.8065 13.9937 44.8189 14.0361 44.8289C14.0785 44.8389 14.1134 44.8464 14.1533 44.8538C14.1932 44.8613 14.2393 44.8713 14.278 44.8775C14.3166 44.8838 14.3577 44.8888 14.4026 44.8925L14.5348 44.9062H14.6595H14.7417H14.7866H14.8452C14.8789 44.9062 14.9126 44.9 14.9462 44.8975C14.9799 44.895 15.0485 44.8912 15.0983 44.885C15.1482 44.8788 15.1856 44.8725 15.223 44.8651C15.2604 44.8576 15.3477 44.8451 15.3988 44.8314L15.4773 44.8115C15.5546 44.7915 15.6307 44.7691 15.7055 44.7441C16.2931 44.5413 16.8029 44.1606 17.1642 43.6547C17.5255 43.1489 17.7203 42.5431 17.7215 41.9215V41.712C17.7215 40.6362 17.9334 39.571 18.3451 38.5771C18.7569 37.5832 19.3603 36.6802 20.1211 35.9195C20.8818 35.1589 21.785 34.5556 22.7789 34.144C23.7729 33.7324 24.8381 33.5207 25.9139 33.5208C26.0386 33.5208 26.3241 33.4997 26.4538 33.4972C28.9585 33.4473 30.8087 33.0047 34.029 30.9588L34.8943 30.2344C36.5069 28.9152 37.808 27.2559 38.7044 25.3751C39.6008 23.4943 40.0704 21.4387 40.0795 19.3552V19.2829C40.0799 15.5323 38.5927 11.9347 35.9441 9.27913C33.2956 6.62356 29.7019 5.12685 25.9513 5.11728ZM25.9875 27.4716C25.8628 27.4716 25.5773 27.4878 25.4476 27.4953C22.8033 27.6436 20.4058 28.1473 18.0357 29.9289C18.0068 29.9504 17.9725 29.9634 17.9366 29.9666C17.9007 29.9697 17.8647 29.9628 17.8325 29.9466C17.8003 29.9305 17.7732 29.9057 17.7543 29.875C17.7353 29.8444 17.7253 29.8091 17.7252 29.7731V19.2829C17.7252 19.1582 17.7252 19.0236 17.734 18.8939C17.8362 16.86 18.6901 14.9365 20.1301 13.4965C21.5701 12.0565 23.4935 11.2026 25.5274 11.1005C25.5985 11.1005 25.6696 11.1005 25.7394 11.1005C25.8092 11.1005 25.8815 11.1005 25.9513 11.1005H26.162C26.2331 11.1005 26.3029 11.1005 26.374 11.1005C28.507 11.2057 30.5146 12.14 31.9687 13.7042C33.4228 15.2684 34.2083 17.3387 34.1579 19.4737C34.1075 21.6088 33.2251 23.6397 31.6988 25.1335C30.1725 26.6273 28.1231 27.4659 25.9875 27.4703V27.4716Z" fill="black"/>
</svg>
