<svg width="125" height="22" viewBox="0 0 125 22" fill="none" xmlns="http://www.w3.org/2000/svg">
<path d="M87.9785 9.19224V17.4258C87.9785 17.9837 88.1045 18.3886 88.3565 18.6406C88.6264 18.8745 89.0763 18.9915 89.7062 18.9915H91.5959V21.556H89.1663C87.7806 21.556 86.7187 21.2321 85.9809 20.5842C85.243 19.9363 84.8741 18.8835 84.8741 17.4258V9.19224H83.1194V6.68169H84.8741V2.98335H87.9785V6.68169H91.5959V9.19224H87.9785Z" fill="black"/>
<path d="M67.1743 14.1054C67.1743 12.5756 67.4803 11.2349 68.0922 10.0831C68.722 8.91328 69.5859 8.01344 70.6837 7.38355C71.7815 6.75366 73.0413 6.43872 74.463 6.43872C76.2627 6.43872 77.7474 6.87064 78.9172 7.73449C80.105 8.58034 80.9059 9.79512 81.3198 11.3788H77.9994C77.7294 10.641 77.2975 10.0651 76.7036 9.65115C76.1097 9.23722 75.3629 9.03026 74.463 9.03026C73.2032 9.03026 72.1954 9.48018 71.4396 10.38C70.7017 11.2619 70.3328 12.5036 70.3328 14.1054C70.3328 15.7071 70.7017 16.9578 71.4396 17.8577C72.1954 18.7575 73.2032 19.2074 74.463 19.2074C76.2447 19.2074 77.4235 18.4246 77.9994 16.8589H81.3198C80.8879 18.3706 80.078 19.5764 78.8902 20.4762C77.7024 21.3581 76.2267 21.799 74.463 21.799C73.0413 21.799 71.7815 21.484 70.6837 20.8542C69.5859 20.2063 68.722 19.3064 68.0922 18.1546C67.4803 16.9848 67.1743 15.6351 67.1743 14.1054Z" fill="black"/>
<path d="M65.3745 13.7544C65.3745 14.3123 65.3385 14.8162 65.2665 15.2661H53.9015C53.9915 16.4539 54.4324 17.4078 55.2243 18.1276C56.0161 18.8475 56.9879 19.2074 58.1397 19.2074C59.7954 19.2074 60.9652 18.5146 61.6491 17.1288H64.9695C64.5196 18.4966 63.7007 19.6214 62.513 20.5032C61.3432 21.3671 59.8854 21.799 58.1397 21.799C56.718 21.799 55.4402 21.484 54.3064 20.8542C53.1906 20.2063 52.3088 19.3064 51.6609 18.1546C51.031 16.9848 50.7161 15.6351 50.7161 14.1054C50.7161 12.5756 51.022 11.2349 51.6339 10.0831C52.2638 8.91328 53.1366 8.01344 54.2524 7.38355C55.3862 6.75366 56.682 6.43872 58.1397 6.43872C59.5435 6.43872 60.7943 6.74467 61.8921 7.35656C62.9899 7.96845 63.8447 8.83229 64.4566 9.94809C65.0685 11.0459 65.3745 12.3147 65.3745 13.7544ZM62.162 12.7826C62.144 11.6488 61.7391 10.74 60.9472 10.0561C60.1554 9.3722 59.1746 9.03026 58.0048 9.03026C56.943 9.03026 56.0341 9.3722 55.2783 10.0561C54.5224 10.722 54.0725 11.6308 53.9285 12.7826H62.162Z" fill="black"/>
<path d="M48.9165 9.19222H46.163V21.556H43.0585V9.19222H41.3038V6.68167H43.0585V5.62885C43.0585 3.91916 43.5084 2.67738 44.4083 1.90352C45.3261 1.11166 46.7569 0.715729 48.7005 0.715729V3.28027C47.7647 3.28027 47.1078 3.46024 46.7299 3.82018C46.3519 4.16211 46.163 4.76501 46.163 5.62885V6.68167H48.9165V9.19222Z" fill="black"/>
<path d="M35.05 8.84129C35.4999 8.08543 36.0938 7.50053 36.8317 7.0866C37.5875 6.65468 38.4784 6.43872 39.5042 6.43872V9.62415H38.7213C37.5155 9.62415 36.5977 9.9301 35.9678 10.542C35.3559 11.1539 35.05 12.2157 35.05 13.7274V21.556H31.9725V6.68168H35.05V8.84129Z" fill="black"/>
<path d="M30.1728 13.7544C30.1728 14.3123 30.1368 14.8162 30.0648 15.2661H18.6998C18.7898 16.4539 19.2307 17.4078 20.0226 18.1276C20.8145 18.8475 21.7863 19.2074 22.9381 19.2074C24.5938 19.2074 25.7636 18.5146 26.4475 17.1288H29.7679C29.3179 18.4966 28.4991 19.6214 27.3113 20.5032C26.1415 21.3671 24.6838 21.799 22.9381 21.799C21.5163 21.799 20.2386 21.484 19.1048 20.8542C17.989 20.2063 17.1071 19.3064 16.4592 18.1546C15.8293 16.9848 15.5144 15.6351 15.5144 14.1054C15.5144 12.5756 15.8203 11.2349 16.4322 10.0831C17.0621 8.91328 17.935 8.01344 19.0508 7.38355C20.1846 6.75366 21.4803 6.43872 22.9381 6.43872C24.3418 6.43872 25.5926 6.74467 26.6904 7.35656C27.7882 7.96845 28.6431 8.83229 29.255 9.94809C29.8668 11.0459 30.1728 12.3147 30.1728 13.7544ZM26.9604 12.7826C26.9424 11.6488 26.5374 10.74 25.7456 10.0561C24.9537 9.3722 23.9729 9.03026 22.8031 9.03026C21.7413 9.03026 20.8325 9.3722 20.0766 10.0561C19.3207 10.722 18.8708 11.6308 18.7268 12.7826H26.9604Z" fill="black"/>
<path d="M6.96304 2.54126H6.94516C6.05614 2.54118 5.17581 2.71623 4.35445 3.05641C3.53308 3.39659 2.78677 3.89523 2.15814 4.52386C1.52951 5.1525 1.03086 5.89881 0.690685 6.72017C0.350508 7.54153 0.17546 8.42186 0.175538 9.31088V20.1344C0.175408 20.2647 0.193252 20.3945 0.228565 20.5199C0.23929 20.558 0.251802 20.5956 0.265505 20.6325C0.269676 20.6444 0.275634 20.6564 0.280401 20.6683C0.289934 20.6927 0.299466 20.7165 0.310787 20.7404C0.317341 20.7541 0.325086 20.7678 0.332236 20.7815C0.339386 20.7952 0.35309 20.8232 0.36441 20.8411C0.375731 20.8589 0.382285 20.8697 0.391222 20.8834C0.400159 20.8971 0.413863 20.9209 0.425779 20.9388C0.437695 20.9566 0.446633 20.9668 0.456761 20.9805C0.46689 20.9942 0.481785 21.015 0.495489 21.0317C0.509193 21.0484 0.51813 21.0579 0.529451 21.071C0.540771 21.0841 0.556858 21.1026 0.571753 21.1181C0.586648 21.1336 0.596777 21.1425 0.609289 21.155C0.621801 21.1676 0.63908 21.1842 0.654571 21.1979C0.670062 21.2116 0.681978 21.2212 0.695682 21.2325L0.743347 21.2712C0.757647 21.282 0.772541 21.2921 0.787437 21.3022C0.802332 21.3123 0.820803 21.326 0.838081 21.3368C0.85536 21.3475 0.869659 21.3558 0.88515 21.3648C0.900641 21.3737 0.920304 21.3856 0.938774 21.3952L0.988226 21.4196L1.04364 21.4452L1.09547 21.4655C1.11454 21.4726 1.1336 21.4804 1.15505 21.4869C1.1765 21.4935 1.1908 21.4976 1.20927 21.503C1.22774 21.5084 1.2486 21.5143 1.26885 21.5191C1.28911 21.5239 1.30579 21.5274 1.32486 21.531C1.34393 21.5346 1.36597 21.5393 1.38444 21.5423C1.40291 21.5453 1.42257 21.5477 1.44402 21.5495L1.50718 21.556H1.56676H1.60608H1.62753H1.65554C1.67162 21.556 1.68771 21.5531 1.7038 21.5519C1.71988 21.5507 1.75265 21.5489 1.77649 21.5459C1.80032 21.5429 1.81819 21.5399 1.83607 21.5364C1.85394 21.5328 1.89565 21.5268 1.92008 21.5203L1.95761 21.5107C1.99455 21.5012 2.0309 21.4905 2.06665 21.4786C2.34745 21.3817 2.59111 21.1997 2.76376 20.958C2.93642 20.7162 3.0295 20.4267 3.03008 20.1297V20.0296C3.03008 19.5154 3.13135 19.0064 3.32811 18.5314C3.52486 18.0564 3.81326 17.6249 4.17681 17.2614C4.54037 16.8979 4.97197 16.6096 5.44697 16.4129C5.92197 16.2162 6.43105 16.115 6.94516 16.1151C7.00474 16.1151 7.14118 16.1049 7.20315 16.1037C8.40014 16.0799 9.28432 15.8684 10.8233 14.8907L11.2368 14.5445C12.0075 13.9141 12.6292 13.1211 13.0576 12.2223C13.486 11.3235 13.7104 10.3411 13.7148 9.34544V9.31088C13.7149 7.51851 13.0042 5.79924 11.7385 4.53017C10.4728 3.2611 8.7554 2.54583 6.96304 2.54126ZM6.98031 13.2242C6.92073 13.2242 6.78429 13.2319 6.72233 13.2355C5.45861 13.3064 4.31286 13.5471 3.18022 14.3985C3.1664 14.4088 3.15001 14.415 3.13286 14.4165C3.11571 14.418 3.09849 14.4147 3.08311 14.407C3.06773 14.3993 3.05479 14.3874 3.04574 14.3728C3.0367 14.3581 3.03189 14.3413 3.03186 14.3241V9.31088C3.03186 9.2513 3.03186 9.18696 3.03603 9.12499C3.08487 8.15301 3.49294 7.2338 4.18111 6.54564C4.86927 5.85747 5.78848 5.4494 6.76046 5.40057C6.79442 5.40057 6.82838 5.40057 6.86175 5.40057C6.89511 5.40057 6.92967 5.40057 6.96304 5.40057H7.06373C7.09769 5.40057 7.13106 5.40057 7.16502 5.40057C8.18438 5.45087 9.14378 5.89737 9.83867 6.64488C10.5336 7.39239 10.909 8.38176 10.8849 9.40208C10.8608 10.4224 10.4391 11.393 9.70971 12.1068C8.98032 12.8207 8.00092 13.2214 6.98031 13.2236V13.2242Z" fill="black"/>
<path d="M124.175 2.94232V21.45H121.14V2.94232H124.175Z" fill="black"/>
<path d="M105.763 2.94232V14.7393C105.763 16.1418 106.127 17.1981 106.855 17.9082C107.6 18.6184 108.63 18.9734 109.944 18.9734C111.275 18.9734 112.305 18.6184 113.033 17.9082C113.778 17.1981 114.151 16.1418 114.151 14.7393V2.94232H117.187V14.686C117.187 16.1951 116.859 17.4733 116.202 18.5207C115.545 19.5682 114.666 20.3493 113.565 20.8641C112.465 21.379 111.249 21.6364 109.917 21.6364C108.586 21.6364 107.37 21.379 106.269 20.8641C105.186 20.3493 104.325 19.5682 103.686 18.5207C103.047 17.4733 102.727 16.1951 102.727 14.686V2.94232H105.763Z" fill="black"/>
</svg>
